<svg id="Layer_1" data-name="Layer 1" xmlns="http://www.w3.org/2000/svg" viewBox="0 0 128 128"><defs><style>.cls-1,.cls-11,.cls-16,.cls-2,.cls-7,.cls-8{fill:none;stroke:#333;}.cls-1,.cls-11,.cls-16,.cls-8{stroke-linecap:round;}.cls-1,.cls-11,.cls-2,.cls-7,.cls-8{stroke-linejoin:round;}.cls-1{stroke-width:3.22px;}.cls-11,.cls-2{stroke-width:3px;}.cls-3{fill:#d8ab8d;}.cls-4{fill:#d0a183;}.cls-5{fill:#528bdd;}.cls-6{fill:#3f77d1;}.cls-7,.cls-8{stroke-width:4px;}.cls-9{fill:#333;}.cls-10{fill:#454749;}.cls-12{fill:#cc9c7e;}.cls-13{fill:#b3bdc6;}.cls-14{fill:#9aa6af;}.cls-15{fill:#4b9ae8;}.cls-16{stroke-miterlimit:10;stroke-width:2px;}</style></defs><title>girl-in-ballcap</title><ellipse class="cls-1" cx="64.01" cy="40.9" rx="21.88" ry="22.09"/><path class="cls-2" d="M84,86.27a52.24,52.24,0,0,1-12.12,14.59,12.25,12.25,0,0,1-15.64,0A52.27,52.27,0,0,1,44,86.23"/><path class="cls-3" d="M109,98a10.36,10.36,0,0,0-8-8c-3.16-.7-10.61-2.32-18.67-4.06Q79.18,85.25,76,84.8V75H52v9.77c-2.22.31-4.44.7-6.64,1.17-7.68,1.67-15,3.3-18.36,4a10.36,10.36,0,0,0-8,8l-1,4c.56.44,19.3,10,46,10s45.44-9.57,46-10Z"/><path class="cls-4" d="M64,97.88V112c26.7,0,45.44-9.57,46-10l-1-4a10.36,10.36,0,0,0-8-8c-3.16-.7-10.61-2.32-18.67-4.06Q79.18,85.25,76,84.8V75H52v7l9.61,9.84A9.06,9.06,0,0,1,64,97.88Z"/><path class="cls-3" d="M80.94,91c1,.19,11.47,2,11.47,2a61.56,61.56,0,0,0,7.31-3.32c-3.63-.8-10.27-2.25-17.39-3.78Q79.18,85.25,76,84.8A6.09,6.09,0,0,0,80.94,91Z"/><path class="cls-5" d="M109,98a10.36,10.36,0,0,0-8-8L84,86.27a52.24,52.24,0,0,1-12.12,14.59,12.25,12.25,0,0,1-15.64,0A52.27,52.27,0,0,1,44,86.23c-7.19,1.57-13.86,3-17,3.75a10.36,10.36,0,0,0-8,8l-1,4c.56.44,19.3,10,46,10s45.44-9.57,46-10Z"/><path class="cls-6" d="M110,102l-.36-1.45a10.89,10.89,0,0,0-7.43-5.64c-.1,0-15.6-2.94-21.27-3.85a52.26,52.26,0,0,1-9.09,9.82,12.25,12.25,0,0,1-15.64,0A52.09,52.09,0,0,1,47.1,91q-3.09.42-6.16,1c-7.22,1.34-13.57,2.53-15.15,2.87a10.89,10.89,0,0,0-7.43,5.64L18,102c.56.44,19.3,10,46,10S109.44,102.42,110,102Z"/><path class="cls-7" d="M84,86.27a52.24,52.24,0,0,1-12.12,14.59,12.25,12.25,0,0,1-15.64,0A52.27,52.27,0,0,1,44,86.23"/><path class="cls-8" d="M52,84.8S35.59,88.08,27,90a10.36,10.36,0,0,0-8,8l-1,4c.56.44,19.3,10,46,10s45.44-9.57,46-10l-1-4a10.36,10.36,0,0,0-8-8C82.33,85.92,76,84.8,76,84.8"/><line class="cls-7" x1="76" y1="89.02" x2="76" y2="77.04"/><line class="cls-2" x1="52" y1="89.02" x2="52" y2="79"/><path class="cls-9" d="M50.48,69.58a8.13,8.13,0,0,0,.32-11.47,8.23,8.23,0,0,0-2.43-1.75h0a8.1,8.1,0,0,0-2.12,13.19,0,0,0,0,1,0,0,8.08,8.08,0,0,0-.3,11.4q.15.16.33.33a8.09,8.09,0,0,0-2.19,8.34A4.56,4.56,0,0,0,48.67,93a4.39,4.39,0,0,0,3.73-2.76,8.1,8.1,0,0,0-2-8.86,0,0,0,0,1,0,0,8.07,8.07,0,0,0,.3-11.39,3.34,3.34,0,0,0-.32-.33Z"/><path class="cls-10" d="M47.65,90.93c-1.77-4.43.88-8.29,1.71-9.54-2-2.75-3.56-5.72-1-9.66a2.57,2.57,0,0,0,0-2.86,7.94,7.94,0,0,1-1.34-4.45,8.1,8.1,0,0,1,3.41-6.6,8.42,8.42,0,0,0-2.12-1.48,8.1,8.1,0,0,0-2.11,13.24A8.07,8.07,0,0,0,45.92,81q.15.16.33.33a8.08,8.08,0,0,0-2,8.88,4.34,4.34,0,0,0,4.89,2.69A4.28,4.28,0,0,1,47.65,90.93Z"/><path class="cls-11" d="M50.48,69.58a8.13,8.13,0,0,0,.32-11.47,8.31,8.31,0,0,0-2.44-1.76,8.11,8.11,0,0,0-2.11,13.23,8.08,8.08,0,0,0,0,11.75c-4.53,4.23-2.67,12,2.4,11.64,4.6-.36,5.52-6.75,2.73-10.54a1.86,1.86,0,0,1,0-2.19,8.08,8.08,0,0,0-1-10.66Z"/><path class="cls-9" d="M48.36,93.63a13.13,13.13,0,0,0-6.23,6.27A3.84,3.84,0,0,0,43.94,105a3.72,3.72,0,0,0,1.64.38h5.58A3.81,3.81,0,0,0,55,101.65a3.88,3.88,0,0,0-.28-1.47A13.13,13.13,0,0,0,48.36,93.63Z"/><path class="cls-10" d="M45.46,103.18a13.13,13.13,0,0,1,6.23-6.27,13.38,13.38,0,0,1,1.71,1,13.09,13.09,0,0,0-5-4.25,13.13,13.13,0,0,0-6.23,6.27A3.84,3.84,0,0,0,44,105.06a3.8,3.8,0,0,0,1.19.35A3.8,3.8,0,0,1,45.46,103.18Z"/><path class="cls-11" d="M48.36,93.63a13.13,13.13,0,0,0-6.23,6.27,3.85,3.85,0,0,0,3.45,5.51h5.58c2.72,0,4.33-2.88,3.56-5.23A11.71,11.71,0,0,0,48.36,93.63Z"/><rect class="cls-11" x="44.94" y="91.96" width="6.9" height="2.59" rx="1" ry="1"/><path class="cls-3" d="M64,23c16.08,0,21,9.18,21,20v4c3.46,0,4.56,3.41,4,8-.48,3.9-2,8-6,8v3c0,6-4.78,8.71-10.36,14.51C69,84.33,66.43,84,64,84s-5,.34-8.64-3.49C49.78,74.7,45,72,45,66V63c-4,0-5.52-4.1-6-8-.56-4.59.54-8,4-8V43C43,32.17,47.92,23,64,23Z"/><path class="cls-12" d="M85,47V43c0-10.82-4.92-20-21-20-1.25,0-2.4.08-3.52.18C57.07,36.88,54.66,52.22,54.83,64c0,4.06.41,10.57,1,16.9C59.24,84.26,61.67,84,64,84s5,.34,8.64-3.49C78.22,74.7,83,72,83,66V63c4,0,5.52-4.1,6-8C89.56,50.4,88.46,47,85,47Z"/><path class="cls-7" d="M64,23c16.08,0,21,9.18,21,20,0,.64.06,3.37,0,4,3.46,0,4.56,3.41,4,8-.48,3.9-2,8-6,8v3c0,6-4.84,8.58-10.42,14.39C68.9,84.21,66.43,84,64,84s-5,.22-8.7-3.61C49.72,74.57,45,72,45,66V63c-4,0-5.52-4.1-6-8-.56-4.59.54-8,4-8-.06-.63,0-3.36,0-4C43,32.17,47.92,23,64,23Z"/><ellipse class="cls-9" cx="54.82" cy="55.5" rx="2" ry="1.5"/><path class="cls-9" d="M64,18.82C46.79,18.82,42.13,33,42.13,40.9,42.14,46,45,47.45,45,52.72c0-13.89,7.46-15.62,19-21.87,11.54,6.25,19,7.2,19,21.87,0-4.4,2.86-6.76,2.88-11.82C85.89,33,81.23,18.82,64,18.82Z"/><path class="cls-9" d="M64,18.82C46.79,18.82,42.13,33,42.13,40.9c0,6.89,2.88,8.67,2.88,13.94V50.72c15.63-.09,20.82-4.46,24.81-9.55a1.29,1.29,0,0,1,2.05,0C73.93,44,77,46.46,83,48.46v6.38c0-4.4,2.88-7.05,2.88-13.94C85.89,33,81.23,18.82,64,18.82Z"/><path class="cls-9" d="M82.32,54.84a18.64,18.64,0,0,1,1.28-6.23,22.46,22.46,0,0,0-1-17.19A18.79,18.79,0,0,0,75.08,23,22,22,0,0,0,64,20.33,22.42,22.42,0,0,0,53,23a18.74,18.74,0,0,0-7.53,8.42,23.29,23.29,0,0,0-2.21,11.39,20.71,20.71,0,0,0,1.3,5.74,25.57,25.57,0,0,1,.88,3,14.66,14.66,0,0,1,.29,3.23.68.68,0,0,1-.7.67.69.69,0,0,1-.67-.67,15.43,15.43,0,0,0-1.42-5.68A21.68,21.68,0,0,1,41.23,43a25.55,25.55,0,0,1,1.93-12.59,21.09,21.09,0,0,1,8.31-9.88A23.44,23.44,0,0,1,64,17.3a24,24,0,0,1,12.5,3.28,21.1,21.1,0,0,1,8.33,9.84,25.6,25.6,0,0,1,2,12.58,24.8,24.8,0,0,1-1.59,6.16,17.2,17.2,0,0,0-1.51,5.68.68.68,0,0,1-.7.67.7.7,0,0,1-.67-.66Z"/><path class="cls-9" d="M44.32,54.84l-.19-4.12a.83.83,0,0,1,.77-.87H45c2.44-.17,4.87-.3,7.25-.69a37.63,37.63,0,0,0,6.93-1.64,18.84,18.84,0,0,0,5.93-3.4,29.87,29.87,0,0,0,4.59-5.23l.07-.09a1.42,1.42,0,0,1,2-.28,1.29,1.29,0,0,1,.39.45,15.86,15.86,0,0,0,4.65,5.23,28.76,28.76,0,0,0,6.51,3.34l.08,0a.94.94,0,0,1,.59.9c-.07,2.13-.19,4.25-.29,6.38a.69.69,0,0,1-1.37,0c-.1-2.13-.22-4.25-.3-6.38l.67.93a28,28,0,0,1-7.28-3.14,17.5,17.5,0,0,1-3.22-2.56,20.25,20.25,0,0,1-2.54-3.24l2.45.08A24.34,24.34,0,0,1,67,46.43a20.87,20.87,0,0,1-7,3.64,34.53,34.53,0,0,1-7.52,1.38A62.84,62.84,0,0,1,45,51.6l.88-.88-.2,4.12a.68.68,0,0,1-.72.65A.69.69,0,0,1,44.32,54.84Z"/><path class="cls-5" d="M41.8,45.5C57,34.66,72,34.91,87.23,46.24l.57-14a9.72,9.72,0,0,0-6.27-9.49L68,17.63a9.71,9.71,0,0,0-6.88,0L47.53,22.75a9.72,9.72,0,0,0-6.28,9.49Z"/><path class="cls-6" d="M48.88,41.24c12.8-6.24,25.48-4.56,38.35,5l.57-14a9.7,9.7,0,0,0-2.62-7l-9.8-3.7a9.71,9.71,0,0,0-6.88,0L55,26.63a9.72,9.72,0,0,0-6.28,9.49Z"/><path class="cls-7" d="M41.8,45.5C57,34.66,72,34.91,87.23,46.24l.57-14a9.72,9.72,0,0,0-6.27-9.49L68,17.63a9.71,9.71,0,0,0-6.88,0L47.53,22.75a9.72,9.72,0,0,0-6.28,9.49Z"/><path class="cls-13" d="M85.67,51.15a3.82,3.82,0,0,1-2.33-.75c-10.66-8.19-28-8.19-38.67,0a4,4,0,0,1-4.66,0,2.15,2.15,0,0,1-.62-3,2,2,0,0,1,.62-.62c16.09-12.37,31.9-12.36,48,0a2.14,2.14,0,0,1,.62,3,2,2,0,0,1-.62.62A3.87,3.87,0,0,1,85.67,51.15Z"/><path class="cls-14" d="M64,42.4c-10.11,0-18.89,3.33-23.59,8.26a4,4,0,0,0,4.26-.26c10.66-8.19,28-8.19,38.67,0a3.89,3.89,0,0,0,2.33.74,4.07,4.07,0,0,0,1.93-.49C82.93,45.73,74.11,42.4,64,42.4Z"/><path class="cls-2" d="M85.67,51.15a3.82,3.82,0,0,1-2.33-.75c-10.66-8.19-28-8.19-38.67,0a4,4,0,0,1-4.66,0,2.15,2.15,0,0,1-.62-3,2,2,0,0,1,.62-.62c16.09-12.37,31.9-12.36,48,0a2.14,2.14,0,0,1,.62,3,2,2,0,0,1-.62.62A3.87,3.87,0,0,1,85.67,51.15Z"/><circle class="cls-15" cx="56.76" cy="30.38" r="1.84"/><circle class="cls-15" cx="64.01" cy="30.38" r="1.84"/><circle class="cls-15" cx="71.27" cy="30.38" r="1.84"/><ellipse class="cls-9" cx="73.18" cy="55.5" rx="2" ry="1.5"/><line class="cls-16" x1="60.2" y1="72.62" x2="68.2" y2="72.62"/><line class="cls-16" x1="63" y1="75.86" x2="65.6" y2="75.86"/><path class="cls-16" d="M60.2,66.62l2.2.6a5.55,5.55,0,0,0,3.6,0l2.2-.6"/></svg>