<svg id="Layer_1" data-name="Layer 1" xmlns="http://www.w3.org/2000/svg" viewBox="0 0 128 128"><defs><style>.cls-1,.cls-15{fill:#3b485b;}.cls-14,.cls-2{fill:#eee;}.cls-3{fill:#90705b;}.cls-4{fill:#ae8164;}.cls-5{fill:#a47c61;}.cls-10,.cls-12,.cls-6,.cls-8{fill:none;}.cls-10,.cls-12,.cls-13,.cls-14,.cls-15,.cls-6,.cls-8{stroke:#333;}.cls-10,.cls-13,.cls-6{stroke-miterlimit:10;}.cls-12,.cls-13,.cls-14,.cls-15,.cls-6,.cls-8{stroke-width:4px;}.cls-7{fill:#333;}.cls-10,.cls-15,.cls-8{stroke-linecap:round;}.cls-12,.cls-14,.cls-15,.cls-8{stroke-linejoin:round;}.cls-13,.cls-9{fill:#2f62ab;}.cls-10{stroke-width:2px;}.cls-11,.cls-16{fill:#fff;}.cls-11{opacity:0.5;isolation:isolate;}.cls-17{fill:#ba362a;}</style></defs><title>barack-obama</title><path class="cls-1" d="M112.16,96l-28-10-4-6-16,11.88L48.16,80l-4,6s-22,8-28,10L14,107.43A123.6,123.6,0,0,0,64.16,118a122.36,122.36,0,0,0,50-10.56Z"/><polygon class="cls-2" points="64.16 91.91 50.4 102.03 56.62 118.03 72.4 118.03 78.4 102.03 64.16 91.91"/><polygon class="cls-3" points="77.34 87.42 64.4 105.56 51.46 88.36 51.46 75.05 77.34 75.05 77.34 87.42"/><path class="cls-4" d="M90.4,43.25a5.06,5.06,0,0,0-5.26-.9V34.17C85.1,23.39,80.4,14,64.4,14S43.7,23.39,43.7,34.15v8.18a5.07,5.07,0,0,0-5.28.9c-2.38,1.88-2,5.44-1.3,9.34.82,4.9,3.82,9.08,8.26,7a.11.11,0,0,1,.17,0,.17.17,0,0,1,0,.1,29.83,29.83,0,0,0,0,4.82c.38,6,3.6,7.5,9.16,13.28a11.28,11.28,0,0,0,9.66,3.48A11.29,11.29,0,0,0,74,77.79c5.56-5.78,8.78-7.3,9.16-13.28a29.83,29.83,0,0,0,0-4.82.12.12,0,0,1,.11-.14.11.11,0,0,1,.09,0c4.44,2,7.42-2.12,8.26-7C92.26,48.67,92.68,45.13,90.4,43.25Z"/><path class="cls-5" d="M83.34,59.61c4.44,2,7.42-2.12,8.26-7,.66-4,1.08-7.46-1.3-9.34a5.06,5.06,0,0,0-5.26-.9V34.17C85.1,23.39,80.4,14,64.4,14h-.7l-2.22,8.14A90.8,90.8,0,0,0,55,57.33c0,3.14.34,13.58.64,21.14a11.49,11.49,0,0,0,8.8,2.8A11.29,11.29,0,0,0,74,77.79c5.56-5.78,8.78-7.3,9.16-13.28a29.83,29.83,0,0,0,0-4.82.12.12,0,0,1,.14-.1Z"/><path class="cls-6" d="M90.4,43.25a5.06,5.06,0,0,0-5.26-.9V34.17C85.1,23.39,80.4,14,64.4,14S43.7,23.39,43.7,34.15v8.18a5.07,5.07,0,0,0-5.28.9c-2.38,1.88-2,5.44-1.3,9.34.82,4.9,3.82,9.08,8.26,7a.11.11,0,0,1,.17,0,.17.17,0,0,1,0,.1,29.83,29.83,0,0,0,0,4.82c.38,6,3.6,7.5,9.16,13.28a11.28,11.28,0,0,0,9.66,3.48A11.29,11.29,0,0,0,74,77.79c5.56-5.78,8.78-7.3,9.16-13.28a29.83,29.83,0,0,0,0-4.82.12.12,0,0,1,.11-.14.11.11,0,0,1,.09,0c4.44,2,7.42-2.12,8.26-7C92.26,48.67,92.68,45.13,90.4,43.25Z"/><path class="cls-7" d="M80.08,15.29A22.79,22.79,0,0,0,64.4,10a22.79,22.79,0,0,0-15.68,5.26,22.51,22.51,0,0,0-8,23.36A34.59,34.59,0,0,1,41.54,44c1.78-.3,3.08,1.88,4,3.82a.5.5,0,0,0,1-.2V40.13c0-1.92-.78-4.26,0-6a10.61,10.61,0,0,0,1.34-4.76c.16-2,.18-4.9,2.24-6.28,4.12-2.76,6.64-.24,14.36-.24s10.24-2.52,14.36.24c2,1.38,2,4.32,2.24,6.28A10.65,10.65,0,0,0,82.4,34c.86,1.78,0,4,0,6v7.52a.5.5,0,0,0,1,.2c.82-2,2.12-4.1,4-3.82a35.1,35.1,0,0,1,.88-5.3A22.5,22.5,0,0,0,80.08,15.29Z"/><line class="cls-6" x1="77.34" y1="91.31" x2="77.34" y2="74.17"/><line class="cls-6" x1="51.46" y1="91.31" x2="51.46" y2="74.49"/><path class="cls-8" d="M44.4,88,21.26,94.65a8,8,0,0,0-5.7,6.38l-1.16,7"/><path class="cls-8" d="M84.4,88l23.14,6.62a8,8,0,0,1,5.7,6.38l1.16,7"/><path class="cls-9" d="M62.4,100l-2.8,7a47.38,47.38,0,0,0-2,6.18L56.4,118h16l-1.2-4.84a47.66,47.66,0,0,0-2-6.2l-2.8-7C66.06,98.79,62.74,98.79,62.4,100Z"/><line class="cls-10" x1="64.4" y1="104.03" x2="64.4" y2="108.03"/><circle class="cls-11" cx="64.4" cy="115.03" r="1"/><circle class="cls-11" cx="62.4" cy="111.03" r="1"/><circle class="cls-11" cx="66.4" cy="111.03" r="1"/><path class="cls-12" d="M72.4,117.05l-1.2-3.86a47.66,47.66,0,0,0-2-6.2l-2.8-7c-.34-1.24-3.66-1.24-4,0l-2.8,7a47.38,47.38,0,0,0-2,6.18l-1.2,3.86"/><path class="cls-13" d="M64.08,91.91,57.4,97l3.5,4.34a4.37,4.37,0,0,0,6.13.86,4.72,4.72,0,0,0,.87-.86l3.46-4.3Z"/><polygon class="cls-14" points="48.4 80.03 44.4 86.03 50.66 102.03 64.4 91.91 48.4 80.03"/><polygon class="cls-14" points="80.4 80.03 84.4 86.03 78.16 102.03 64.4 91.91 80.4 80.03"/><polyline class="cls-15" points="56.4 117.33 44.4 86.03 36.4 88.03 31.74 94.94 36.4 100.03 32.4 106.03 44.4 116.58"/><polyline class="cls-15" points="72.4 117.33 84.4 86.03 92.4 88.03 97.06 94.94 92.4 100.03 96.4 106.03 84.4 116.03"/><circle class="cls-11" cx="64.4" cy="98.03" r="1"/><rect class="cls-16" x="82.4" y="104.03" width="6" height="4"/><rect class="cls-17" x="82.4" y="104.03" width="6" height="0.8"/><rect class="cls-17" x="82.4" y="105.63" width="6" height="0.8"/><rect class="cls-9" x="82.4" y="104.03" width="2.4" height="2.4"/><rect class="cls-17" x="82.4" y="107.23" width="6" height="0.8"/><path class="cls-8" d="M114.4,108a123.78,123.78,0,0,1-50,10,123.61,123.61,0,0,1-50-10"/><circle class="cls-7" cx="54.96" cy="50.31" r="2" transform="translate(-10.09 13.97) rotate(-13.28)"/><circle class="cls-7" cx="73.85" cy="50.31" r="2" transform="translate(7.92 110.62) rotate(-76.72)"/><line class="cls-10" x1="60.6" y1="68.95" x2="68.6" y2="68.95"/><line class="cls-10" x1="63.41" y1="72.19" x2="66" y2="72.19"/><path class="cls-10" d="M60.6,63l2.2.6a5.55,5.55,0,0,0,3.6,0l2.2-.6"/></svg>