<svg xmlns="http://www.w3.org/2000/svg" viewBox="0 0 128 128"><defs><style>.cls-1{isolation:isolate;}.cls-2{fill:#b8cad1;}.cls-3{fill:#bec5c7;}.cls-4{fill:#333;}.cls-5{fill:#414242;}.cls-6{fill:#4e5454;opacity:0.18;}.cls-10,.cls-12,.cls-6{mix-blend-mode:multiply;}.cls-7{fill:#fbd3ca;}.cls-8{fill:#f3cac2;}.cls-10,.cls-11,.cls-17,.cls-9{fill:none;}.cls-17,.cls-9{stroke:#333;stroke-linejoin:round;stroke-width:4px;}.cls-10,.cls-11{stroke:#d9a89f;stroke-miterlimit:10;stroke-width:2px;}.cls-10,.cls-11,.cls-17{stroke-linecap:round;}.cls-10{opacity:0.36;}.cls-12{fill:#f6c5bb;opacity:0.35;}.cls-13{fill:#ebf1f2;}.cls-14{fill:#f7dad4;}.cls-15{fill:#fce0da;}.cls-16{fill:#e0e9eb;}.cls-18{fill:#717171;}.cls-19{fill:#fde6e1;}.cls-20{fill:#8d8d8d;}.cls-21{fill:#f9e1dd;}</style></defs><title>andy-warhol</title><g class="cls-1"><g id="Layer_1" data-name="Layer 1"><path class="cls-2" d="M89.44,46H37.81c-1.18,4.31-1.76,11.38,0,21l3.44-1.52L43,74.47l4.42-2,11.15,1H68.69l11.15-1,4.43,2L86,65.55l3.44,1.52C91.21,57.4,90.63,50.33,89.44,46Z"/><path class="cls-3" d="M41.75,47.2a33.09,33.09,0,0,0,3.15-2.45c1-.91,2-1.83,3-2.84a25.1,25.1,0,0,0,2.62-3.26A33.86,33.86,0,0,0,52.63,35a32.93,32.93,0,0,1-1.51,4A30.74,30.74,0,0,1,49,42.82a19.26,19.26,0,0,1-2.81,3.38,14,14,0,0,1-3.65,2.59.89.89,0,0,1-.89-1.54Z"/><path class="cls-4" d="M39.74,46.55a36.62,36.62,0,0,0-1.34,10,65.15,65.15,0,0,0,.77,10.31l-1.92-1,3.47-1.47.06,0a1.28,1.28,0,0,1,1.68.68,2,2,0,0,1,.09.3l1.41,9-1.38-.71,4.44-2,.07,0a.7.7,0,0,1,.4,0L58.56,73.4l-11.23,0,.46-.08L43.4,75.37a1,1,0,0,1-1.31-.47,1.39,1.39,0,0,1-.06-.19v0L40,65.8l1.84,1-3.42,1.58a1.37,1.37,0,0,1-1.81-.67c0-.09-.07-.19-.1-.28v-.07A67.6,67.6,0,0,1,35,56.57a39.78,39.78,0,0,1,.86-11.08,2,2,0,0,1,3.9.93l0,.11Z"/><path class="cls-4" d="M91.37,45.49a40.17,40.17,0,0,1,.87,11.08A67.61,67.61,0,0,1,90.8,67.32v.06a1.37,1.37,0,0,1-1.62,1.06l-.29-.1-3.41-1.58,1.83-1-2.06,8.86v0a1,1,0,0,1-1.18.74l-.2-.07-4.39-2.08.46.08-11.23,0,11.08-1.88a.74.74,0,0,1,.39,0l.07,0,4.45,2-1.39.71,1.41-9a1.28,1.28,0,0,1,1.47-1.06,1,1,0,0,1,.3.08l.07,0L90,65.81l-1.92,1a64,64,0,0,0,.77-10.31,35.86,35.86,0,0,0-1.34-10h0a2,2,0,1,1,3.83-1.16Z"/><path class="cls-5" d="M109.07,96.76a7.76,7.76,0,0,0-5.77-6.47c-3-.86-26.55-7.1-26.55-7.1V74.47H50.45l.06,8.72S27,89.43,24,90.29a7.77,7.77,0,0,0-5.78,6.47L17,103.86C32.49,110.7,45.61,114,63.63,114s31.14-3.3,46.62-10.14Z"/><path class="cls-6" d="M89,92.21l4.56-4.56L76.75,83.19V74.47H50.45v2.12L66.08,92.21A16.18,16.18,0,0,0,89,92.21Z"/><path class="cls-7" d="M63.56,81.58a14.67,14.67,0,0,0,7.52-1.67c6.57-4,8.26-5.52,9.6-10.54.82-3.1,1.48-7.54,1.48-7.54,2,0,6.1-4.35,6.84-7.83.9-4.27,0-7.83-3.92-7.83V41c0-12.15-6.89-21.86-21.52-21.86S42.05,28.8,42.05,41v5.22c-3.92,0-4.82,3.56-3.92,7.83.74,3.48,4.88,7.83,6.84,7.83,0,0,.65,4.44,1.48,7.54,1.34,5,3,6.52,9.6,10.54A14.64,14.64,0,0,0,63.56,81.58Z"/><path class="cls-8" d="M85.08,46.17V41c0-12.15-6.89-21.86-21.52-21.86H63.4c-4,12-8,33-7.87,43.62,0,4.13.24,11.66.67,17.27a15,15,0,0,0,7.36,1.59,14.67,14.67,0,0,0,7.52-1.67c6.57-4,8.26-5.52,9.6-10.54.82-3.1,1.48-7.54,1.48-7.54,2,0,6.1-4.35,6.84-7.83C89.9,49.73,89,46.17,85.08,46.17Z"/><path class="cls-9" d="M63.56,81.58a14.67,14.67,0,0,0,7.52-1.67c6.57-4,8.26-5.52,9.6-10.54.82-3.1,1.48-7.54,1.48-7.54,2,0,6.1-4.35,6.84-7.83.9-4.27,0-7.83-3.92-7.83V41c0-12.15-6.89-21.86-21.52-21.86S42.05,28.8,42.05,41v5.22c-3.92,0-4.82,3.56-3.92,7.83.74,3.48,4.88,7.83,6.84,7.83,0,0,.65,4.44,1.48,7.54,1.34,5,3,6.52,9.6,10.54A14.64,14.64,0,0,0,63.56,81.58Z"/><path class="cls-10" d="M58,68.59l.69-.14a25.13,25.13,0,0,1,4.9-.49,24.86,24.86,0,0,1,4.94.5l.64.13"/><line class="cls-10" x1="62.25" y1="71.97" x2="64.88" y2="71.97"/><path class="cls-11" d="M61,62.55,62.4,63a4,4,0,0,0,2.33,0l1.45-.45"/><path class="cls-4" d="M91.91,46.67,88.78,46l-3.87.78L83.19,51a.69.69,0,0,1-1.32-.26V40.17A14.77,14.77,0,0,0,81,35.26l7.4,2.82Z"/><path class="cls-12" d="M84.59,43.76c.16.23.33.45.49.67V41c0-12.15-6.89-21.86-21.52-21.86S42.05,28.8,42.05,41v5.22c-3.88,0-4.8,3.49-3.94,7.7,2.85-.56,12.83-3,18.29-11,4.82-7,10.72-11.71,20.73-11.15l.42.69a14.29,14.29,0,0,0,1.52,2.11C81.41,37.18,82.31,40.32,84.59,43.76Z"/><path class="cls-13" d="M92.55,40.92S89.67,23.48,80,21.19a4.83,4.83,0,0,0-.74-1.53c-3.5-4.58-15.34-8.07-29.46-3.31C37,20.67,33.24,40.78,33,43.29c0,.21,0,.4-.09.61L32.06,48l12.66-2.66L41.43,48.3c5-1.15,9-2.13,12-6.29l2.11-2.45S63.63,28,73.64,28.33l2.6.08L80.86,36l2.85,4.44,3.71,3.8,4.49,2.47V45.28l-.85-3.51Z"/><path class="cls-3" d="M75.31,27.17l3.15-2.37-.62,3.89a1.59,1.59,0,1,1-2.53-1.52Z"/><path class="cls-14" d="M76.3,47.2H71.8a5.9,5.9,0,0,0-3.51,1.17,4.51,4.51,0,0,0-1.76,4.48c.8,4.16,3.72,6.64,7.82,6.64,4.9,0,6.67-4.66,6.67-7.79,0-.13,0-.25,0-.37A4.64,4.64,0,0,0,76.3,47.2Z"/><path class="cls-15" d="M55.62,46.69H51.13a4.66,4.66,0,0,0-4.69,4.22c0,.12,0,.25,0,.37,0,3.21,1.77,8,6.65,8,4.08,0,7-2.53,7.79-6.79a4.68,4.68,0,0,0-1.76-4.58A5.71,5.71,0,0,0,55.62,46.69Z"/><path class="cls-4" d="M60.49,49.85,59.78,48a11.37,11.37,0,0,1,7.55,0l-.72,1.89A9.43,9.43,0,0,0,60.49,49.85Z"/><path class="cls-4" d="M59.48,47.43a6.58,6.58,0,0,0-4-1.37L43,46l.32,2.08a2,2,0,0,1,1.78,1.59l.69,4.43h0c.74,3.07,2.89,6.25,7.16,6.25,4.44,0,7.73-2.86,8.59-7.47A5.55,5.55,0,0,0,59.48,47.43Zm.24,5.09C59,56.3,56.55,58.47,53,58.47c-4.13,0-5.63-4.16-5.63-6.95,0-.1,0-.19,0-.3A3.65,3.65,0,0,1,51,47.92h4.42a4.75,4.75,0,0,1,2.88,1A3.7,3.7,0,0,1,59.72,52.52Z"/><path class="cls-4" d="M65.7,52.86c.86,4.61,4.16,7.47,8.6,7.47,4.26,0,6.41-3.18,7.16-6.25h0l.69-4.43a2,2,0,0,1,1.77-1.59L84.27,46l-12.48.08a6.55,6.55,0,0,0-4,1.37A5.54,5.54,0,0,0,65.7,52.86Zm3.22-4a4.72,4.72,0,0,1,2.87-1h4.42a3.66,3.66,0,0,1,3.7,3.3c0,.11,0,.2,0,.3,0,2.79-1.5,6.95-5.62,6.95-3.59,0-6.06-2.17-6.77-5.95A3.7,3.7,0,0,1,68.92,48.9Z"/><path class="cls-16" d="M91.91,45.28l-.85-3.51.49-.28C90,36.17,86.59,27.57,80,26a4.83,4.83,0,0,0-.74-1.53c-3.5-4.59-15.69-9-29.46-3.31C39.09,25.61,35,37,33.42,43.6l-1,4.32,13-3.13-4.2,3.62s7.85.49,14.27-8.85c4.81-7,10.72-11.71,20.72-11.15l.42.68a13.31,13.31,0,0,0,1.52,2.11c2.34,2.62,3.25,5.77,5.53,9.2C87.08,45.49,92.33,46.17,91.91,45.28Z"/><path class="cls-4" d="M79.07,34.56a20.66,20.66,0,0,1,3.64,2.89c1.09,1,2.12,2.07,3.16,3a22,22,0,0,0,6.8,4.32L90,47.48,88,42.9l-1.24-2.78L89.83,40l3.22-.18-2,2.55a50.38,50.38,0,0,0-1.69-5.87,39.56,39.56,0,0,0-2.42-5.56,21.15,21.15,0,0,0-3.29-4.71,8.7,8.7,0,0,0-4.18-2.61L78,23.24l-.37-1.34a5.17,5.17,0,0,0-1.82-2.11A13.85,13.85,0,0,0,72.62,18,22.32,22.32,0,0,0,65,16.51a29.39,29.39,0,0,0-15.33,4A24.2,24.2,0,0,0,39.2,32a26.22,26.22,0,0,0-1.31,3.8l-1.11,4.22c-.77,2.83-1.58,5.61-2.39,8.4l-2.22-2.57c1.59-.18,3.11-.36,4.6-.59s3-.44,4.44-.7a20.62,20.62,0,0,0,4.41-1.25,16.56,16.56,0,0,0,4-2.47,23.61,23.61,0,0,1-3.26,3.62,20.63,20.63,0,0,1-4.12,3,17.68,17.68,0,0,1-4.76,1.73c-1.63.34-3.26.54-4.82.76l-3,.41.78-3c.74-2.8,1.48-5.6,2.17-8.39l1-4.22A29.46,29.46,0,0,1,35,30.31a27.78,27.78,0,0,1,4.93-8,29.73,29.73,0,0,1,7.3-5.94,34.2,34.2,0,0,1,17.88-4.81,26.93,26.93,0,0,1,9.35,1.89,18.72,18.72,0,0,1,4.36,2.45,9.69,9.69,0,0,1,3.48,4.62l-1.77-1.67a13.53,13.53,0,0,1,6.56,4.08A25,25,0,0,1,91,28.75,44.63,44.63,0,0,1,93.58,35a55,55,0,0,1,1.69,6.51L95.74,44l-2.5.08-3.22.1,1.85-3,1.92,4.64,1.95,4.66-4.59-1.94a22.5,22.5,0,0,1-4.32-2.38,16.71,16.71,0,0,1-3.51-3.41,22.65,22.65,0,0,1-2.43-4C80.23,37.39,79.66,36,79.07,34.56Z"/><path class="cls-9" d="M76.75,83.19s23.54,6.24,26.55,7.1a7.76,7.76,0,0,1,5.77,6.47l1.18,7.1C94.77,110.7,81.64,114,63.63,114S32.49,110.7,17,103.86l1.18-7.1A7.77,7.77,0,0,1,24,90.29c3-.86,26.55-7.1,26.55-7.1"/><line class="cls-17" x1="50.47" y1="76.5" x2="50.47" y2="87.65"/><line class="cls-17" x1="76.79" y1="76.5" x2="76.79" y2="87.65"/><path class="cls-3" d="M75.39,27.41a1.78,1.78,0,0,1,.86,0,3.11,3.11,0,0,1,.43.14l.32.16.26.16a5.71,5.71,0,0,1,.75.68,8.83,8.83,0,0,1,1,1.35,18.79,18.79,0,0,1,1.35,2.69c.78,1.79,1.35,3.65,1.91,5.32a19.12,19.12,0,0,0,2.54,4.81,12.3,12.3,0,0,0,4.1,3.68,12.64,12.64,0,0,1-4.81-3,20.58,20.58,0,0,1-3.55-4.63c-1-1.74-1.62-3.46-2.48-5.05a18.76,18.76,0,0,0-1.36-2.24,7.61,7.61,0,0,0-.75-.87,2,2,0,0,0-.31-.24l0,0a0,0,0,0,0,0,0,.16.16,0,0,0,.09,0c.12,0,0,.07.51,0a1.5,1.5,0,0,1-.8-2.9Z"/><path class="cls-3" d="M75,30.47a6.75,6.75,0,0,0-1-.17,10.11,10.11,0,0,0-1.11,0,12.36,12.36,0,0,0-2.26.22A16.65,16.65,0,0,0,66.22,32a30.27,30.27,0,0,0-7.69,5.84L55,41.52a43.79,43.79,0,0,1-3.84,3.57,15.73,15.73,0,0,1-4.74,2.53,51.44,51.44,0,0,1-5,1.32h0a.54.54,0,0,1-.66-.41.55.55,0,0,1,.28-.61,25.23,25.23,0,0,0,3.26-2.08,29.93,29.93,0,0,0,3-2.54,25.9,25.9,0,0,0,2.61-2.93A26.82,26.82,0,0,0,52,37.07a26.85,26.85,0,0,1-2,3.46,25.42,25.42,0,0,1-2.43,3.15,29.08,29.08,0,0,1-2.85,2.81,25.37,25.37,0,0,1-3.26,2.4l-.4-1c3.24-1,6.5-2,8.79-4.25s4.4-5,6.68-7.57a28.57,28.57,0,0,1,8.32-6.67,18.1,18.1,0,0,1,5.23-1.74A14.75,14.75,0,0,1,73,27.46a11.76,11.76,0,0,1,1.43.15A8.31,8.31,0,0,1,75.9,28a1.32,1.32,0,0,1-.78,2.51Z"/><path class="cls-18" d="M54.18,49.28A1.72,1.72,0,1,0,55.9,51a1.72,1.72,0,0,0-1.72-1.72"/><path class="cls-18" d="M72.82,49.28A1.72,1.72,0,1,0,74.54,51a1.71,1.71,0,0,0-1.72-1.72"/><circle class="cls-19" cx="53.74" cy="53.69" r="2.69"/><path class="cls-20" d="M53.74,51a2.6,2.6,0,0,0-1.24.32,1.7,1.7,0,0,0,3.17.51A2.67,2.67,0,0,0,53.74,51Z"/><circle class="cls-21" cx="73.52" cy="53.69" r="2.69"/><path class="cls-20" d="M71.44,52a1.7,1.7,0,0,0,3.08-.8,2.59,2.59,0,0,0-1-.2A2.68,2.68,0,0,0,71.44,52Z"/></g></g></svg>